<svg width="48" height="48" viewBox="0 0 48 48" fill="none" xmlns="http://www.w3.org/2000/svg">
<path d="M23.9966 8C18.386 8 13.8933 10.5553 10.6228 13.5967C7.37303 16.6104 5.19961 20.2212 4.17192 22.7001C3.94277 23.2487 3.94277 23.8597 4.17192 24.4083C5.19961 26.8873 7.37303 30.498 10.6228 33.5117C13.8933 36.5531 18.386 39.1084 23.9966 39.1084C29.6072 39.1084 34.0999 36.5531 37.3704 33.5117C40.6201 30.4911 42.7936 26.8873 43.8282 24.4083C44.0573 23.8597 44.0573 23.2487 43.8282 22.7001C42.7936 20.2212 40.6201 16.6104 37.3704 13.5967C34.0999 10.5553 29.6072 8 23.9966 8ZM13.9975 23.5542C13.9975 20.9023 15.0509 18.359 16.9261 16.4838C18.8013 14.6086 21.3447 13.5551 23.9966 13.5551C26.6485 13.5551 29.1918 14.6086 31.067 16.4838C32.9422 18.359 33.9957 20.9023 33.9957 23.5542C33.9957 26.2061 32.9422 28.7495 31.067 30.6247C29.1918 32.4999 26.6485 33.5533 23.9966 33.5533C21.3447 33.5533 18.8013 32.4999 16.9261 30.6247C15.0509 28.7495 13.9975 26.2061 13.9975 23.5542ZM23.9966 19.1101C23.9966 21.5613 22.0037 23.5542 19.5525 23.5542C19.0595 23.5542 18.5873 23.4709 18.1429 23.3251C17.761 23.2001 17.3166 23.4362 17.3305 23.8389C17.3513 24.318 17.4208 24.7972 17.5527 25.2763C18.504 28.8315 22.1634 30.9425 25.7187 29.9911C29.2739 29.0398 31.3848 25.3804 30.4335 21.8252C29.6628 18.9435 27.1144 17.0062 24.2813 16.8881C23.8785 16.8742 23.6425 17.3117 23.7674 17.7006C23.9133 18.145 23.9966 18.6171 23.9966 19.1101Z" fill="black"/>
</svg>
