<svg width="48" height="48" viewBox="0 0 48 48" fill="none" xmlns="http://www.w3.org/2000/svg">
<path d="M4 10.5C4 8.77609 4.68482 7.12279 5.90381 5.90381C7.12279 4.68482 8.77609 4 10.5 4H26.5C28.2239 4 29.8772 4.68482 31.0962 5.90381C32.3152 7.12279 33 8.77609 33 10.5V15H37.5C38.3536 15 39.1988 15.1681 39.9874 15.4948C40.7761 15.8214 41.4926 16.3002 42.0962 16.9038C42.6998 17.5074 43.1786 18.2239 43.5052 19.0126C43.8319 19.8012 44 20.6464 44 21.5V37.5C44 38.3536 43.8319 39.1988 43.5052 39.9874C43.1786 40.7761 42.6998 41.4926 42.0962 42.0962C41.4926 42.6998 40.7761 43.1786 39.9874 43.5052C39.1988 43.8319 38.3536 44 37.5 44H21.5C20.6464 44 19.8012 43.8319 19.0126 43.5052C18.2239 43.1786 17.5074 42.6998 16.9038 42.0962C16.3002 41.4926 15.8214 40.7761 15.4948 39.9874C15.1681 39.1988 15 38.3536 15 37.5V33H10.5C8.77609 33 7.12279 32.3152 5.90381 31.0962C4.68482 29.8772 4 28.2239 4 26.5V10.5ZM30 10.5C30 9.57174 29.6313 8.6815 28.9749 8.02513C28.3185 7.36875 27.4283 7 26.5 7H10.5C9.57174 7 8.6815 7.36875 8.02513 8.02513C7.36875 8.6815 7 9.57174 7 10.5V26.5C7 28.432 8.568 30 10.5 30H15V21.5C15 20.226 15.366 19.038 16 18.034C16.5185 17.2134 17.2134 16.5185 18.034 16C19.0712 15.3448 20.2732 14.998 21.5 15H30V10.5ZM32 29.966C31.4815 30.7867 30.7867 31.4815 29.966 32C28.962 32.634 27.774 33 26.5 33H18V37.5C18 39.432 19.568 41 21.5 41H37.5C38.4283 41 39.3185 40.6312 39.9749 39.9749C40.6312 39.3185 41 38.4283 41 37.5V21.5C41 20.5717 40.6312 19.6815 39.9749 19.0251C39.3185 18.3687 38.4283 18 37.5 18H33V26.5C33 27.774 32.634 28.962 32 29.966Z" fill="black"/>
</svg>
