<svg width="48" height="48" viewBox="0 0 48 48" fill="none" xmlns="http://www.w3.org/2000/svg">
<path d="M5.44261 22.8415C5.16127 23.123 4.98727 23.5118 4.98727 23.9412C4.98727 24.3706 5.16127 24.7594 5.44261 25.0409C5.72409 25.3222 6.11341 25.4968 6.54283 25.4968L22.5864 25.4968L22.5864 40.9726C22.5864 41.8317 23.2828 42.5282 24.1419 42.5282C25.001 42.5282 25.6975 41.8317 25.6975 40.9726L25.6975 25.4968H41.1733C42.0324 25.4968 42.7289 24.8003 42.7289 23.9412C42.7289 23.0821 42.0324 22.3857 41.1733 22.3857H25.6975L25.6975 6.34211C25.6975 5.91256 25.5234 5.52367 25.2419 5.24217C24.9604 4.96067 24.5715 4.78655 24.1419 4.78655C23.7125 4.78655 23.3234 4.96093 23.0419 5.24228C22.7605 5.52375 22.5864 5.91269 22.5864 6.34211L22.5864 22.3857L6.54283 22.3857C6.11341 22.3857 5.72409 22.5602 5.44261 22.8415Z" fill="black"/>
</svg>
