<svg width="48" height="48" viewBox="0 0 48 48" fill="none" xmlns="http://www.w3.org/2000/svg">
<path d="M12.3 15C11.5839 15 10.8972 14.7155 10.3908 14.2092C9.88446 13.7028 9.6 13.0161 9.6 12.3C9.6 11.5839 9.88446 10.8972 10.3908 10.3908C10.8972 9.88446 11.5839 9.6 12.3 9.6C13.0161 9.6 13.7028 9.88446 14.2092 10.3908C14.7155 10.8972 15 11.5839 15 12.3C15 13.0161 14.7155 13.7028 14.2092 14.2092C13.7028 14.7155 13.0161 15 12.3 15ZM40.938 23.244L24.738 7.044C24.09 6.396 23.19 6 22.2 6H9.6C7.602 6 6 7.602 6 9.6V22.2C6 23.19 6.396 24.09 7.062 24.738L23.244 40.938C23.91 41.586 24.81 42 25.8 42C26.79 42 27.69 41.586 28.338 40.938L40.938 28.338C41.604 27.69 42 26.79 42 25.8C42 24.792 41.586 23.892 40.938 23.244Z" fill="black"/>
</svg>
